<svg width="196" height="95" viewBox="0 0 196 95" fill="none" xmlns="http://www.w3.org/2000/svg">
<path d="M62.1003 9.18038L13.7897 33.8165L7.61839 36.6593L0.848145 40.4759L1.06018 31.6961L20.56 22.0753L62.1003 0.613281L92.4473 27.7538V30.2982L86.0863 33.2667V30.2982L62.1003 9.18038Z" fill="#2495FF"/>
<path d="M3.16272 92.9909C2.72112 92.9909 2.31995 92.9069 1.95921 92.739C1.59846 92.571 1.2937 92.3471 1.04491 92.0672C0.796121 91.7811 0.61886 91.467 0.513125 91.125L1.18485 90.8731C1.34656 91.3458 1.59846 91.7065 1.94055 91.9553C2.28263 92.1978 2.69002 92.3191 3.16272 92.3191C3.46126 92.3191 3.72249 92.2725 3.9464 92.1792C4.17653 92.0797 4.35379 91.9428 4.47818 91.7687C4.60258 91.5945 4.66477 91.3924 4.66477 91.1623C4.66477 90.8202 4.57148 90.5558 4.38489 90.3693C4.1983 90.1827 3.93085 90.0396 3.58255 89.9401L2.33239 89.5669C1.84103 89.4239 1.46163 89.1844 1.19418 88.8485C0.932955 88.5127 0.802341 88.1302 0.802341 87.701C0.802341 87.334 0.892527 87.0106 1.0729 86.7307C1.25327 86.4446 1.49895 86.2207 1.80993 86.059C2.12714 85.8973 2.48477 85.8164 2.88283 85.8164C3.29955 85.8164 3.67273 85.8942 4.00238 86.0497C4.33824 86.1989 4.62124 86.398 4.85137 86.6468C5.08149 86.8956 5.24632 87.1723 5.34583 87.4771L4.69276 87.7383C4.54349 87.3278 4.31025 87.0168 3.99305 86.8054C3.68206 86.5939 3.3151 86.4882 2.89216 86.4882C2.62471 86.4882 2.38836 86.5348 2.18311 86.6281C1.98408 86.7214 1.82859 86.8551 1.71664 87.0293C1.60468 87.2034 1.54871 87.4087 1.54871 87.645C1.54871 87.9311 1.63889 88.1893 1.81926 88.4194C1.99963 88.6433 2.27641 88.8112 2.64959 88.9232L3.75048 89.2497C4.29781 89.4114 4.71142 89.6447 4.99131 89.9494C5.27119 90.2542 5.41114 90.6367 5.41114 91.097C5.41114 91.4701 5.31473 91.7998 5.12192 92.0859C4.93533 92.3658 4.67099 92.5866 4.32891 92.7483C3.99305 92.91 3.60432 92.9909 3.16272 92.9909ZM6.74978 92.8789V85.8164H7.4495V88.8485L7.2909 88.8112C7.41529 88.4878 7.61743 88.2328 7.89732 88.0462C8.18342 87.8596 8.51307 87.7663 8.88625 87.7663C9.24077 87.7663 9.55798 87.8472 9.83786 88.0089C10.124 88.1706 10.3479 88.3945 10.5096 88.6806C10.6775 88.9605 10.7615 89.2777 10.7615 89.6322V92.8789H10.0618V89.9028C10.0618 89.598 10.0058 89.3399 9.89384 89.1284C9.78189 88.917 9.62639 88.7552 9.42736 88.6433C9.23455 88.5251 9.01375 88.466 8.76496 88.466C8.51618 88.466 8.29227 88.5251 8.09324 88.6433C7.89421 88.7552 7.7356 88.9201 7.61743 89.1378C7.50548 89.3492 7.4495 89.6042 7.4495 89.9028V92.8789H6.74978ZM13.544 92.9909C13.2267 92.9909 12.9438 92.9318 12.695 92.8136C12.4462 92.6892 12.2503 92.5213 12.1072 92.3098C11.9641 92.0983 11.8926 91.8558 11.8926 91.5821C11.8926 91.3209 11.9486 91.0845 12.0606 90.8731C12.1725 90.6554 12.3467 90.4719 12.583 90.3226C12.8194 90.1733 13.121 90.0676 13.488 90.0054L15.4472 89.6789V90.3133L13.6559 90.6118C13.2952 90.674 13.0339 90.7891 12.8722 90.957C12.7167 91.125 12.639 91.324 12.639 91.5541C12.639 91.778 12.7261 91.9677 12.9002 92.1232C13.0806 92.2787 13.3107 92.3565 13.5906 92.3565C13.9327 92.3565 14.2312 92.2849 14.4862 92.1419C14.7412 91.9926 14.9403 91.7936 15.0833 91.5448C15.2264 91.296 15.2979 91.0192 15.2979 90.7145V89.4456C15.2979 89.1471 15.1891 88.9045 14.9714 88.7179C14.7537 88.5313 14.4707 88.438 14.1224 88.438C13.8176 88.438 13.5502 88.5158 13.32 88.6713C13.0899 88.8206 12.9189 89.0165 12.8069 89.259L12.1725 88.9138C12.2658 88.7024 12.412 88.5096 12.611 88.3354C12.8162 88.1613 13.0495 88.0244 13.3107 87.9249C13.5719 87.8192 13.8425 87.7663 14.1224 87.7663C14.4893 87.7663 14.8128 87.8378 15.0927 87.9809C15.3788 88.1239 15.5996 88.323 15.7551 88.578C15.9168 88.8268 15.9976 89.116 15.9976 89.4456V92.8789H15.2979V91.8806L15.4005 91.9833C15.3135 92.1699 15.1766 92.3409 14.99 92.4964C14.8097 92.6457 14.5951 92.767 14.3463 92.8602C14.1037 92.9473 13.8363 92.9909 13.544 92.9909ZM17.4369 94.7448V87.8783H18.1366V88.9978L18.0246 88.8019C18.2236 88.4847 18.488 88.2328 18.8176 88.0462C19.1535 87.8596 19.536 87.7663 19.9652 87.7663C20.4379 87.7663 20.8577 87.8814 21.2246 88.1115C21.5978 88.3354 21.8902 88.6433 22.1016 89.0351C22.3193 89.427 22.4282 89.8748 22.4282 90.3786C22.4282 90.8762 22.3193 91.324 22.1016 91.722C21.8902 92.1139 21.5978 92.4249 21.2246 92.655C20.8577 92.8789 20.4379 92.9909 19.9652 92.9909C19.536 92.9909 19.1473 92.8945 18.799 92.7016C18.4569 92.5026 18.1988 92.2227 18.0246 91.862L18.1366 91.7594V94.7448H17.4369ZM19.9278 92.2911C20.2637 92.2911 20.5623 92.2072 20.8235 92.0392C21.0909 91.8713 21.2993 91.6443 21.4486 91.3582C21.6041 91.0659 21.6818 90.7393 21.6818 90.3786C21.6818 90.0116 21.6041 89.6851 21.4486 89.399C21.2993 89.1129 21.0909 88.8859 20.8235 88.7179C20.5623 88.55 20.2637 88.466 19.9278 88.466C19.592 88.466 19.2872 88.55 19.0135 88.7179C18.7461 88.8859 18.5315 89.116 18.3698 89.4083C18.2143 89.6944 18.1366 90.0178 18.1366 90.3786C18.1366 90.7393 18.2143 91.0659 18.3698 91.3582C18.5315 91.6443 18.7461 91.8713 19.0135 92.0392C19.2872 92.2072 19.592 92.2911 19.9278 92.2911ZM23.6596 92.8789V87.8783H24.3593V92.8789H23.6596ZM23.6596 86.9546V85.9284H24.3593V86.9546H23.6596ZM25.7915 92.8789V87.8783H26.4913V88.8485L26.3326 88.8112C26.457 88.4878 26.6592 88.2328 26.9391 88.0462C27.2252 87.8596 27.5548 87.7663 27.928 87.7663C28.2825 87.7663 28.5997 87.8472 28.8796 88.0089C29.1657 88.1706 29.3896 88.3945 29.5513 88.6806C29.7193 88.9605 29.8032 89.2777 29.8032 89.6322V92.8789H29.1035V89.9028C29.1035 89.598 29.0475 89.3399 28.9356 89.1284C28.8299 88.917 28.6775 88.7552 28.4784 88.6433C28.2856 88.5251 28.0617 88.466 27.8067 88.466C27.5517 88.466 27.3247 88.5251 27.1257 88.6433C26.9266 88.7552 26.7711 88.9201 26.6592 89.1378C26.5472 89.3492 26.4913 89.6042 26.4913 89.9028V92.8789H25.7915ZM33.5093 94.9314C33.1672 94.9314 32.85 94.8785 32.5577 94.7728C32.2716 94.6671 32.0228 94.5209 31.8114 94.3343C31.6061 94.1539 31.4475 93.9425 31.3355 93.6999L31.9793 93.3547C32.0788 93.5911 32.2561 93.7963 32.5111 93.9705C32.7661 94.1446 33.0926 94.2317 33.4907 94.2317C33.7954 94.2317 34.0753 94.1726 34.3303 94.0544C34.5853 93.9363 34.7906 93.7621 34.9461 93.532C35.1016 93.3018 35.1793 93.0188 35.1793 92.683V91.5728L35.2913 91.6754C35.1171 92.0361 34.859 92.316 34.5169 92.5151C34.1748 92.7079 33.8017 92.8043 33.3974 92.8043C32.9309 92.8043 32.5111 92.6923 32.1379 92.4684C31.7647 92.2445 31.4693 91.9428 31.2516 91.5634C31.0401 91.1778 30.9344 90.7518 30.9344 90.2853C30.9344 89.8126 31.0401 89.3865 31.2516 89.0071C31.4693 88.6277 31.7616 88.3261 32.1286 88.1022C32.5017 87.8783 32.9247 87.7663 33.3974 87.7663C33.8017 87.7663 34.1686 87.8596 34.4983 88.0462C34.8341 88.2328 35.0985 88.4847 35.2913 88.8019L35.1793 88.9978V87.8783H35.879V92.683C35.879 93.1121 35.7764 93.4947 35.5712 93.8305C35.3721 94.1726 35.0922 94.4401 34.7315 94.6329C34.377 94.8319 33.9696 94.9314 33.5093 94.9314ZM33.4347 92.1046C33.7581 92.1046 34.0504 92.0237 34.3117 91.862C34.5729 91.6941 34.7813 91.4733 34.9368 91.1996C35.0985 90.9197 35.1793 90.6149 35.1793 90.2853C35.1793 89.9556 35.0985 89.654 34.9368 89.3803C34.7813 89.1004 34.5729 88.8796 34.3117 88.7179C34.0504 88.55 33.7581 88.466 33.4347 88.466C33.1051 88.466 32.8065 88.55 32.5391 88.7179C32.2716 88.8796 32.0601 89.0973 31.9046 89.371C31.7554 89.6447 31.6807 89.9494 31.6807 90.2853C31.6807 90.6149 31.7554 90.9197 31.9046 91.1996C32.0601 91.4733 32.2685 91.6941 32.5297 91.862C32.7972 92.0237 33.0988 92.1046 33.4347 92.1046ZM40.2082 92.8789V86.6281H38.2864V85.9284H42.8578V86.6281H40.9546V92.8789H40.2082ZM43.6762 92.8789V85.8164H44.3759V88.8485L44.2173 88.8112C44.3417 88.4878 44.5439 88.2328 44.8237 88.0462C45.1098 87.8596 45.4395 87.7663 45.8127 87.7663C46.1672 87.7663 46.4844 87.8472 46.7643 88.0089C47.0504 88.1706 47.2743 88.3945 47.436 88.6806C47.6039 88.9605 47.6879 89.2777 47.6879 89.6322V92.8789H46.9882V89.9028C46.9882 89.598 46.9322 89.3399 46.8203 89.1284C46.7083 88.917 46.5528 88.7552 46.3538 88.6433C46.161 88.5251 45.9402 88.466 45.6914 88.466C45.4426 88.466 45.2187 88.5251 45.0197 88.6433C44.8206 88.7552 44.662 88.9201 44.5439 89.1378C44.4319 89.3492 44.3759 89.6042 44.3759 89.9028V92.8789H43.6762ZM51.3007 92.9909C50.8342 92.9909 50.4113 92.8789 50.0319 92.655C49.6587 92.4249 49.3633 92.1108 49.1456 91.7127C48.9279 91.3147 48.819 90.8637 48.819 90.3599C48.819 89.8561 48.9248 89.4114 49.1363 89.0258C49.3477 88.634 49.6338 88.3261 49.9946 88.1022C50.3615 87.8783 50.772 87.7663 51.2261 87.7663C51.5868 87.7663 51.9071 87.8347 52.187 87.9716C52.4731 88.1022 52.7157 88.2825 52.9147 88.5127C53.1138 88.7366 53.2661 88.9916 53.3719 89.2777C53.4776 89.5576 53.5305 89.8468 53.5305 90.1453C53.5305 90.2075 53.5274 90.2791 53.5211 90.3599C53.5149 90.4346 53.5056 90.5123 53.4932 90.5932H49.2669V89.9401H53.092L52.7561 90.22C52.8121 89.8779 52.7717 89.5731 52.6348 89.3057C52.5042 89.032 52.3145 88.8174 52.0657 88.662C51.8169 88.5002 51.5371 88.4194 51.2261 88.4194C50.9151 88.4194 50.6259 88.5002 50.3584 88.662C50.0972 88.8237 49.8919 89.0507 49.7427 89.343C49.5934 89.6291 49.5343 89.9712 49.5654 90.3693C49.5343 90.7673 49.5965 91.1156 49.752 91.4142C49.9137 91.7065 50.1314 91.9335 50.4051 92.0952C50.685 92.2569 50.9835 92.3378 51.3007 92.3378C51.6677 92.3378 51.9755 92.2507 52.2243 92.0766C52.4731 91.9024 52.6753 91.6847 52.8308 91.4235L53.4278 91.7407C53.3283 91.9646 53.1759 92.173 52.9707 92.3658C52.7654 92.5524 52.5198 92.7048 52.2337 92.8229C51.9538 92.9349 51.6428 92.9909 51.3007 92.9909ZM56.4521 92.8789V85.9284H60.7437V86.6281H57.1984V89.0445H60.4638V89.7442H57.1984V92.8789H56.4521ZM63.4519 92.9909C63.1036 92.9909 62.7864 92.91 62.5003 92.7483C62.2142 92.5804 61.9872 92.3502 61.8193 92.0579C61.6576 91.7594 61.5767 91.4173 61.5767 91.0317V87.8783H62.2764V90.9477C62.2764 91.2151 62.3293 91.4515 62.435 91.6567C62.547 91.8558 62.6994 92.0113 62.8922 92.1232C63.0912 92.2352 63.3182 92.2911 63.5732 92.2911C63.8282 92.2911 64.0552 92.2352 64.2543 92.1232C64.4533 92.005 64.6088 91.8402 64.7208 91.6287C64.8327 91.4111 64.8887 91.1529 64.8887 90.8544V87.8783H65.5884V92.8789H64.8887V91.9086L65.0473 91.946C64.9291 92.2694 64.727 92.5244 64.4409 92.711C64.1548 92.8976 63.8251 92.9909 63.4519 92.9909ZM68.94 92.9349C68.4922 92.9349 68.147 92.8043 67.9044 92.543C67.6618 92.2818 67.5405 91.9086 67.5405 91.4235V88.578H66.6169V87.8783H66.8502C67.0616 87.8783 67.2296 87.8099 67.3539 87.673C67.4783 87.53 67.5405 87.3527 67.5405 87.1412V86.7214H68.2403V87.8783H69.3411V88.578H68.2403V91.4235C68.2403 91.5914 68.2651 91.7407 68.3149 91.8713C68.3646 91.9957 68.4486 92.0952 68.5668 92.1699C68.6912 92.2445 68.856 92.2818 69.0613 92.2818C69.111 92.2818 69.1701 92.2787 69.2385 92.2725C69.3069 92.2663 69.366 92.26 69.4158 92.2538V92.8789C69.3411 92.8976 69.2572 92.91 69.1639 92.9162C69.0706 92.9287 68.9959 92.9349 68.94 92.9349ZM72.417 92.9909C72.0687 92.9909 71.7515 92.91 71.4654 92.7483C71.1793 92.5804 70.9523 92.3502 70.7844 92.0579C70.6227 91.7594 70.5418 91.4173 70.5418 91.0317V87.8783H71.2415V90.9477C71.2415 91.2151 71.2944 91.4515 71.4001 91.6567C71.5121 91.8558 71.6645 92.0113 71.8573 92.1232C72.0563 92.2352 72.2833 92.2911 72.5383 92.2911C72.7933 92.2911 73.0204 92.2352 73.2194 92.1232C73.4184 92.005 73.5739 91.8402 73.6859 91.6287C73.7978 91.4111 73.8538 91.1529 73.8538 90.8544V87.8783H74.5535V92.8789H73.8538V91.9086L74.0124 91.946C73.8942 92.2694 73.6921 92.5244 73.406 92.711C73.1199 92.8976 72.7902 92.9909 72.417 92.9909ZM75.9925 92.8789V87.8783H76.6922V88.6993L76.5989 88.578C76.7171 88.3416 76.8944 88.155 77.1307 88.0182C77.3733 87.8814 77.6656 87.813 78.0077 87.813H78.3249V88.5127H77.8864C77.5257 88.5127 77.2365 88.6246 77.0188 88.8485C76.8011 89.0725 76.6922 89.3897 76.6922 89.8002V92.8789H75.9925ZM81.4213 92.9909C80.9548 92.9909 80.5319 92.8789 80.1525 92.655C79.7793 92.4249 79.4839 92.1108 79.2662 91.7127C79.0485 91.3147 78.9396 90.8637 78.9396 90.3599C78.9396 89.8561 79.0454 89.4114 79.2568 89.0258C79.4683 88.634 79.7544 88.3261 80.1152 88.1022C80.4821 87.8783 80.8926 87.7663 81.3467 87.7663C81.7074 87.7663 82.0277 87.8347 82.3076 87.9716C82.5937 88.1022 82.8363 88.2825 83.0353 88.5127C83.2343 88.7366 83.3867 88.9916 83.4925 89.2777C83.5982 89.5576 83.6511 89.8468 83.6511 90.1453C83.6511 90.2075 83.648 90.2791 83.6417 90.3599C83.6355 90.4346 83.6262 90.5123 83.6137 90.5932H79.3875V89.9401H83.2126L82.8767 90.22C82.9327 89.8779 82.8923 89.5731 82.7554 89.3057C82.6248 89.032 82.4351 88.8174 82.1863 88.662C81.9375 88.5002 81.6576 88.4194 81.3467 88.4194C81.0357 88.4194 80.7465 88.5002 80.479 88.662C80.2178 88.8237 80.0125 89.0507 79.8633 89.343C79.714 89.6291 79.6549 89.9712 79.686 90.3693C79.6549 90.7673 79.7171 91.1156 79.8726 91.4142C80.0343 91.7065 80.252 91.9335 80.5257 92.0952C80.8055 92.2569 81.1041 92.3378 81.4213 92.3378C81.7883 92.3378 82.0961 92.2507 82.3449 92.0766C82.5937 91.9024 82.7959 91.6847 82.9513 91.4235L83.5484 91.7407C83.4489 91.9646 83.2965 92.173 83.0913 92.3658C82.886 92.5524 82.6404 92.7048 82.3543 92.8229C82.0744 92.9349 81.7634 92.9909 81.4213 92.9909ZM89.8473 92.9909C89.3622 92.9909 88.9082 92.9038 88.4852 92.7296C88.0685 92.5493 87.7015 92.3005 87.3843 91.9833C87.0671 91.6598 86.8183 91.2804 86.638 90.8451C86.4576 90.4035 86.3674 89.9214 86.3674 89.399C86.3674 88.8765 86.4576 88.3976 86.638 87.9622C86.8183 87.5206 87.0671 87.1412 87.3843 86.824C87.7015 86.5006 88.0685 86.2518 88.4852 86.0777C88.9082 85.9035 89.3622 85.8164 89.8473 85.8164C90.3325 85.8164 90.7834 85.9066 91.2001 86.087C91.6231 86.2611 91.9931 86.5099 92.3103 86.8334C92.6275 87.1506 92.8763 87.5269 93.0567 87.9622C93.2371 88.3976 93.3273 88.8765 93.3273 89.399C93.3273 89.9214 93.2371 90.4035 93.0567 90.8451C92.8763 91.2804 92.6275 91.6598 92.3103 91.9833C91.9931 92.3005 91.6231 92.5493 91.2001 92.7296C90.7834 92.9038 90.3325 92.9909 89.8473 92.9909ZM89.8473 92.2911C90.2516 92.2911 90.6186 92.2165 90.9482 92.0672C91.2841 91.918 91.5733 91.7096 91.8159 91.4422C92.0584 91.1747 92.245 90.8668 92.3756 90.5185C92.5125 90.1702 92.5809 89.797 92.5809 89.399C92.5809 89.0071 92.5125 88.6371 92.3756 88.2888C92.245 87.9405 92.0584 87.6326 91.8159 87.3651C91.5733 87.0977 91.2841 86.8893 90.9482 86.7401C90.6186 86.5908 90.2516 86.5162 89.8473 86.5162C89.4431 86.5162 89.073 86.5908 88.7371 86.7401C88.4075 86.8893 88.1214 87.0977 87.8788 87.3651C87.6362 87.6326 87.4465 87.9405 87.3097 88.2888C87.1791 88.6371 87.1138 89.0071 87.1138 89.399C87.1138 89.797 87.1791 90.1702 87.3097 90.5185C87.4465 90.8668 87.6362 91.1747 87.8788 91.4422C88.1214 91.7096 88.4106 91.918 88.7464 92.0672C89.0823 92.2165 89.4493 92.2911 89.8473 92.2911ZM95.1739 92.8789V88.578H94.1756V87.8783H95.1739V87.4304C95.1739 87.0821 95.2516 86.7898 95.4071 86.5535C95.5626 86.3109 95.7678 86.1274 96.0228 86.003C96.2778 85.8786 96.5515 85.8164 96.8438 85.8164C96.906 85.8164 96.9776 85.8227 97.0584 85.8351C97.1393 85.8413 97.2046 85.8506 97.2543 85.8631V86.4975C97.2108 86.4851 97.1517 86.4788 97.0771 86.4788C97.0024 86.4726 96.9496 86.4695 96.9185 86.4695C96.6199 86.4695 96.3711 86.541 96.1721 86.6841C95.9731 86.8271 95.8736 87.0759 95.8736 87.4304V87.8783H97.0957V88.578H95.8736V92.8789H95.1739ZM100.011 92.8789V85.9284H102.4C102.854 85.9284 103.252 86.0186 103.594 86.1989C103.936 86.3731 104.2 86.6219 104.387 86.9453C104.58 87.2625 104.676 87.6326 104.676 88.0555C104.676 88.5469 104.545 88.9667 104.284 89.315C104.029 89.6633 103.681 89.909 103.239 90.0521L104.863 92.8789H103.986L102.288 89.8841L102.791 90.1733H100.758V92.8789H100.011ZM100.758 89.4736H102.437C102.735 89.4736 102.997 89.4176 103.221 89.3057C103.444 89.1875 103.619 89.0227 103.743 88.8112C103.867 88.5935 103.93 88.3385 103.93 88.0462C103.93 87.7539 103.867 87.502 103.743 87.2905C103.619 87.079 103.444 86.9173 103.221 86.8054C102.997 86.6872 102.735 86.6281 102.437 86.6281H100.758V89.4736ZM107.879 92.9909C107.413 92.9909 106.99 92.8789 106.61 92.655C106.237 92.4249 105.942 92.1108 105.724 91.7127C105.506 91.3147 105.398 90.8637 105.398 90.3599C105.398 89.8561 105.503 89.4114 105.715 89.0258C105.926 88.634 106.212 88.3261 106.573 88.1022C106.94 87.8783 107.351 87.7663 107.805 87.7663C108.165 87.7663 108.486 87.8347 108.766 87.9716C109.052 88.1022 109.294 88.2825 109.493 88.5127C109.692 88.7366 109.845 88.9916 109.95 89.2777C110.056 89.5576 110.109 89.8468 110.109 90.1453C110.109 90.2075 110.106 90.2791 110.1 90.3599C110.094 90.4346 110.084 90.5123 110.072 90.5932H105.845V89.9401H109.671L109.335 90.22C109.391 89.8779 109.35 89.5731 109.213 89.3057C109.083 89.032 108.893 88.8174 108.644 88.662C108.396 88.5002 108.116 88.4194 107.805 88.4194C107.494 88.4194 107.204 88.5002 106.937 88.662C106.676 88.8237 106.471 89.0507 106.321 89.343C106.172 89.6291 106.113 89.9712 106.144 90.3693C106.113 90.7673 106.175 91.1156 106.331 91.4142C106.492 91.7065 106.71 91.9335 106.984 92.0952C107.264 92.2569 107.562 92.3378 107.879 92.3378C108.246 92.3378 108.554 92.2507 108.803 92.0766C109.052 91.9024 109.254 91.6847 109.409 91.4235L110.006 91.7407C109.907 91.9646 109.755 92.173 109.549 92.3658C109.344 92.5524 109.098 92.7048 108.812 92.8229C108.532 92.9349 108.221 92.9909 107.879 92.9909ZM112.698 92.9909C112.381 92.9909 112.098 92.9318 111.849 92.8136C111.6 92.6892 111.404 92.5213 111.261 92.3098C111.118 92.0983 111.046 91.8558 111.046 91.5821C111.046 91.3209 111.102 91.0845 111.214 90.8731C111.326 90.6554 111.5 90.4719 111.737 90.3226C111.973 90.1733 112.275 90.0676 112.642 90.0054L114.601 89.6789V90.3133L112.81 90.6118C112.449 90.674 112.188 90.7891 112.026 90.957C111.871 91.125 111.793 91.324 111.793 91.5541C111.793 91.778 111.88 91.9677 112.054 92.1232C112.234 92.2787 112.464 92.3565 112.744 92.3565C113.086 92.3565 113.385 92.2849 113.64 92.1419C113.895 91.9926 114.094 91.7936 114.237 91.5448C114.38 91.296 114.452 91.0192 114.452 90.7145V89.4456C114.452 89.1471 114.343 88.9045 114.125 88.7179C113.907 88.5313 113.624 88.438 113.276 88.438C112.971 88.438 112.704 88.5158 112.474 88.6713C112.244 88.8206 112.073 89.0165 111.961 89.259L111.326 88.9138C111.42 88.7024 111.566 88.5096 111.765 88.3354C111.97 88.1613 112.203 88.0244 112.464 87.9249C112.726 87.8192 112.996 87.7663 113.276 87.7663C113.643 87.7663 113.967 87.8378 114.246 87.9809C114.533 88.1239 114.753 88.323 114.909 88.578C115.071 88.8268 115.151 89.116 115.151 89.4456V92.8789H114.452V91.8806L114.554 91.9833C114.467 92.1699 114.33 92.3409 114.144 92.4964C113.963 92.6457 113.749 92.767 113.5 92.8602C113.258 92.9473 112.99 92.9909 112.698 92.9909ZM116.591 92.8789V85.8164H117.29V92.8789H116.591ZM120.411 92.8789V85.9284H124.889V86.6281H121.157V89.0445H124.702V89.7442H121.157V92.1792H124.889V92.8789H120.411ZM127.756 92.9909C127.277 92.9909 126.857 92.8696 126.496 92.627C126.135 92.3844 125.874 92.0548 125.713 91.6381L126.3 91.3582C126.443 91.663 126.642 91.9055 126.897 92.0859C127.159 92.2663 127.445 92.3565 127.756 92.3565C128.054 92.3565 128.306 92.2849 128.511 92.1419C128.717 91.9926 128.819 91.7998 128.819 91.5634C128.819 91.3893 128.77 91.2525 128.67 91.1529C128.57 91.0472 128.455 90.9663 128.325 90.9104C128.194 90.8544 128.079 90.814 127.98 90.7891L127.261 90.5838C126.801 90.4532 126.468 90.2697 126.263 90.0334C126.058 89.797 125.955 89.5234 125.955 89.2124C125.955 88.9201 126.03 88.6651 126.179 88.4474C126.328 88.2297 126.53 88.0617 126.785 87.9436C127.04 87.8254 127.323 87.7663 127.634 87.7663C128.057 87.7663 128.44 87.8783 128.782 88.1022C129.13 88.3199 129.376 88.6246 129.519 89.0165L128.922 89.2964C128.797 89.0165 128.617 88.7988 128.381 88.6433C128.151 88.4816 127.893 88.4007 127.606 88.4007C127.327 88.4007 127.103 88.4722 126.935 88.6153C126.767 88.7584 126.683 88.9387 126.683 89.1564C126.683 89.3243 126.726 89.4581 126.813 89.5576C126.9 89.6571 127 89.7317 127.112 89.7815C127.23 89.8313 127.333 89.8686 127.42 89.8935L128.25 90.136C128.654 90.2542 128.969 90.4377 129.192 90.6865C129.423 90.9353 129.538 91.2276 129.538 91.5634C129.538 91.8371 129.46 92.0828 129.304 92.3005C129.155 92.5182 128.947 92.6892 128.679 92.8136C128.412 92.9318 128.104 92.9909 127.756 92.9909ZM132.68 92.9349C132.232 92.9349 131.887 92.8043 131.644 92.543C131.402 92.2818 131.28 91.9086 131.28 91.4235V88.578H130.357V87.8783H130.59C130.801 87.8783 130.969 87.8099 131.094 87.673C131.218 87.53 131.28 87.3527 131.28 87.1412V86.7214H131.98V87.8783H133.081V88.578H131.98V91.4235C131.98 91.5914 132.005 91.7407 132.055 91.8713C132.104 91.9957 132.188 92.0952 132.307 92.1699C132.431 92.2445 132.596 92.2818 132.801 92.2818C132.851 92.2818 132.91 92.2787 132.978 92.2725C133.047 92.2663 133.106 92.26 133.156 92.2538V92.8789C133.081 92.8976 132.997 92.91 132.904 92.9162C132.81 92.9287 132.736 92.9349 132.68 92.9349ZM135.739 92.9909C135.422 92.9909 135.139 92.9318 134.89 92.8136C134.641 92.6892 134.445 92.5213 134.302 92.3098C134.159 92.0983 134.088 91.8558 134.088 91.5821C134.088 91.3209 134.144 91.0845 134.256 90.8731C134.368 90.6554 134.542 90.4719 134.778 90.3226C135.015 90.1733 135.316 90.0676 135.683 90.0054L137.642 89.6789V90.3133L135.851 90.6118C135.49 90.674 135.229 90.7891 135.067 90.957C134.912 91.125 134.834 91.324 134.834 91.5541C134.834 91.778 134.921 91.9677 135.095 92.1232C135.276 92.2787 135.506 92.3565 135.786 92.3565C136.128 92.3565 136.426 92.2849 136.681 92.1419C136.936 91.9926 137.135 91.7936 137.279 91.5448C137.422 91.296 137.493 91.0192 137.493 90.7145V89.4456C137.493 89.1471 137.384 88.9045 137.167 88.7179C136.949 88.5313 136.666 88.438 136.318 88.438C136.013 88.438 135.745 88.5158 135.515 88.6713C135.285 88.8206 135.114 89.0165 135.002 89.259L134.368 88.9138C134.461 88.7024 134.607 88.5096 134.806 88.3354C135.011 88.1613 135.245 88.0244 135.506 87.9249C135.767 87.8192 136.038 87.7663 136.318 87.7663C136.685 87.7663 137.008 87.8378 137.288 87.9809C137.574 88.1239 137.795 88.323 137.95 88.578C138.112 88.8268 138.193 89.116 138.193 89.4456V92.8789H137.493V91.8806L137.596 91.9833C137.509 92.1699 137.372 92.3409 137.185 92.4964C137.005 92.6457 136.79 92.767 136.542 92.8602C136.299 92.9473 136.031 92.9909 135.739 92.9909ZM141.454 92.9349C141.006 92.9349 140.661 92.8043 140.418 92.543C140.175 92.2818 140.054 91.9086 140.054 91.4235V88.578H139.13V87.8783H139.364C139.575 87.8783 139.743 87.8099 139.867 87.673C139.992 87.53 140.054 87.3527 140.054 87.1412V86.7214H140.754V87.8783H141.855V88.578H140.754V91.4235C140.754 91.5914 140.779 91.7407 140.828 91.8713C140.878 91.9957 140.962 92.0952 141.08 92.1699C141.205 92.2445 141.37 92.2818 141.575 92.2818C141.625 92.2818 141.684 92.2787 141.752 92.2725C141.82 92.2663 141.88 92.26 141.929 92.2538V92.8789C141.855 92.8976 141.771 92.91 141.677 92.9162C141.584 92.9287 141.509 92.9349 141.454 92.9349ZM145.252 92.9909C144.786 92.9909 144.363 92.8789 143.983 92.655C143.61 92.4249 143.315 92.1108 143.097 91.7127C142.879 91.3147 142.771 90.8637 142.771 90.3599C142.771 89.8561 142.876 89.4114 143.088 89.0258C143.299 88.634 143.585 88.3261 143.946 88.1022C144.313 87.8783 144.723 87.7663 145.178 87.7663C145.538 87.7663 145.859 87.8347 146.138 87.9716C146.425 88.1022 146.667 88.2825 146.866 88.5127C147.065 88.7366 147.218 88.9916 147.323 89.2777C147.429 89.5576 147.482 89.8468 147.482 90.1453C147.482 90.2075 147.479 90.2791 147.473 90.3599C147.466 90.4346 147.457 90.5123 147.445 90.5932H143.218V89.9401H147.043L146.708 90.22C146.764 89.8779 146.723 89.5731 146.586 89.3057C146.456 89.032 146.266 88.8174 146.017 88.662C145.768 88.5002 145.489 88.4194 145.178 88.4194C144.867 88.4194 144.577 88.5002 144.31 88.662C144.049 88.8237 143.843 89.0507 143.694 89.343C143.545 89.6291 143.486 89.9712 143.517 90.3693C143.486 90.7673 143.548 91.1156 143.703 91.4142C143.865 91.7065 144.083 91.9335 144.357 92.0952C144.636 92.2569 144.935 92.3378 145.252 92.3378C145.619 92.3378 145.927 92.2507 146.176 92.0766C146.425 91.9024 146.627 91.6847 146.782 91.4235L147.379 91.7407C147.28 91.9646 147.127 92.173 146.922 92.3658C146.717 92.5524 146.471 92.7048 146.185 92.8229C145.905 92.9349 145.594 92.9909 145.252 92.9909ZM150.404 92.8789V85.9284H151.15V92.8789H150.404ZM152.688 92.8789V87.8783H153.388V88.8485L153.229 88.8112C153.353 88.4878 153.556 88.2328 153.835 88.0462C154.122 87.8596 154.451 87.7663 154.824 87.7663C155.179 87.7663 155.496 87.8472 155.776 88.0089C156.062 88.1706 156.286 88.3945 156.448 88.6806C156.616 88.9605 156.7 89.2777 156.7 89.6322V92.8789H156V89.9028C156 89.598 155.944 89.3399 155.832 89.1284C155.726 88.917 155.574 88.7552 155.375 88.6433C155.182 88.5251 154.958 88.466 154.703 88.466C154.448 88.466 154.221 88.5251 154.022 88.6433C153.823 88.7552 153.668 88.9201 153.556 89.1378C153.444 89.3492 153.388 89.6042 153.388 89.9028V92.8789H152.688ZM159.279 92.8789L157.329 87.8783H158.113L159.755 92.2632H159.503L161.154 87.8783H161.947L159.979 92.8789H159.279ZM164.95 92.9909C164.483 92.9909 164.06 92.8789 163.681 92.655C163.308 92.4249 163.012 92.1108 162.795 91.7127C162.577 91.3147 162.468 90.8637 162.468 90.3599C162.468 89.8561 162.574 89.4114 162.785 89.0258C162.997 88.634 163.283 88.3261 163.644 88.1022C164.011 87.8783 164.421 87.7663 164.875 87.7663C165.236 87.7663 165.556 87.8347 165.836 87.9716C166.122 88.1022 166.365 88.2825 166.564 88.5127C166.763 88.7366 166.915 88.9916 167.021 89.2777C167.127 89.5576 167.18 89.8468 167.18 90.1453C167.18 90.2075 167.177 90.2791 167.17 90.3599C167.164 90.4346 167.155 90.5123 167.142 90.5932H162.916V89.9401H166.741L166.405 90.22C166.461 89.8779 166.421 89.5731 166.284 89.3057C166.153 89.032 165.964 88.8174 165.715 88.662C165.466 88.5002 165.186 88.4194 164.875 88.4194C164.564 88.4194 164.275 88.5002 164.008 88.662C163.746 88.8237 163.541 89.0507 163.392 89.343C163.243 89.6291 163.184 89.9712 163.215 90.3693C163.184 90.7673 163.246 91.1156 163.401 91.4142C163.563 91.7065 163.781 91.9335 164.054 92.0952C164.334 92.2569 164.633 92.3378 164.95 92.3378C165.317 92.3378 165.625 92.2507 165.874 92.0766C166.122 91.9024 166.324 91.6847 166.48 91.4235L167.077 91.7407C166.978 91.9646 166.825 92.173 166.62 92.3658C166.415 92.5524 166.169 92.7048 165.883 92.8229C165.603 92.9349 165.292 92.9909 164.95 92.9909ZM170.149 92.9909C169.67 92.9909 169.25 92.8696 168.889 92.627C168.528 92.3844 168.267 92.0548 168.105 91.6381L168.693 91.3582C168.836 91.663 169.035 91.9055 169.29 92.0859C169.552 92.2663 169.838 92.3565 170.149 92.3565C170.447 92.3565 170.699 92.2849 170.904 92.1419C171.11 91.9926 171.212 91.7998 171.212 91.5634C171.212 91.3893 171.162 91.2525 171.063 91.1529C170.963 91.0472 170.848 90.9663 170.718 90.9104C170.587 90.8544 170.472 90.814 170.373 90.7891L169.654 90.5838C169.194 90.4532 168.861 90.2697 168.656 90.0334C168.451 89.797 168.348 89.5234 168.348 89.2124C168.348 88.9201 168.423 88.6651 168.572 88.4474C168.721 88.2297 168.923 88.0617 169.178 87.9436C169.433 87.8254 169.716 87.7663 170.027 87.7663C170.45 87.7663 170.833 87.8783 171.175 88.1022C171.523 88.3199 171.769 88.6246 171.912 89.0165L171.315 89.2964C171.19 89.0165 171.01 88.7988 170.774 88.6433C170.544 88.4816 170.285 88.4007 169.999 88.4007C169.719 88.4007 169.496 88.4722 169.328 88.6153C169.16 88.7584 169.076 88.9387 169.076 89.1564C169.076 89.3243 169.119 89.4581 169.206 89.5576C169.293 89.6571 169.393 89.7317 169.505 89.7815C169.623 89.8313 169.726 89.8686 169.813 89.8935L170.643 90.136C171.047 90.2542 171.361 90.4377 171.585 90.6865C171.816 90.9353 171.931 91.2276 171.931 91.5634C171.931 91.8371 171.853 92.0828 171.697 92.3005C171.548 92.5182 171.34 92.6892 171.072 92.8136C170.805 92.9318 170.497 92.9909 170.149 92.9909ZM175.073 92.9349C174.625 92.9349 174.28 92.8043 174.037 92.543C173.795 92.2818 173.673 91.9086 173.673 91.4235V88.578H172.75V87.8783H172.983C173.194 87.8783 173.362 87.8099 173.487 87.673C173.611 87.53 173.673 87.3527 173.673 87.1412V86.7214H174.373V87.8783H175.474V88.578H174.373V91.4235C174.373 91.5914 174.398 91.7407 174.448 91.8713C174.497 91.9957 174.581 92.0952 174.7 92.1699C174.824 92.2445 174.989 92.2818 175.194 92.2818C175.244 92.2818 175.303 92.2787 175.371 92.2725C175.44 92.2663 175.499 92.26 175.548 92.2538V92.8789C175.474 92.8976 175.39 92.91 175.297 92.9162C175.203 92.9287 175.129 92.9349 175.073 92.9349ZM176.777 92.8789V87.8783H177.477V92.8789H176.777ZM176.777 86.9546V85.9284H177.477V86.9546H176.777ZM178.909 92.8789V87.8783H179.609V88.8485L179.45 88.8112C179.575 88.4878 179.777 88.2328 180.057 88.0462C180.343 87.8596 180.672 87.7663 181.046 87.7663C181.4 87.7663 181.717 87.8472 181.997 88.0089C182.283 88.1706 182.507 88.3945 182.669 88.6806C182.837 88.9605 182.921 89.2777 182.921 89.6322V92.8789H182.221V89.9028C182.221 89.598 182.165 89.3399 182.053 89.1284C181.947 88.917 181.795 88.7552 181.596 88.6433C181.403 88.5251 181.179 88.466 180.924 88.466C180.669 88.466 180.442 88.5251 180.243 88.6433C180.044 88.7552 179.889 88.9201 179.777 89.1378C179.665 89.3492 179.609 89.6042 179.609 89.9028V92.8789H178.909ZM186.627 94.9314C186.285 94.9314 185.968 94.8785 185.675 94.7728C185.389 94.6671 185.14 94.5209 184.929 94.3343C184.724 94.1539 184.565 93.9425 184.453 93.6999L185.097 93.3547C185.196 93.5911 185.374 93.7963 185.629 93.9705C185.884 94.1446 186.21 94.2317 186.608 94.2317C186.913 94.2317 187.193 94.1726 187.448 94.0544C187.703 93.9363 187.908 93.7621 188.064 93.532C188.219 93.3018 188.297 93.0188 188.297 92.683V91.5728L188.409 91.6754C188.235 92.0361 187.977 92.316 187.634 92.5151C187.292 92.7079 186.919 92.8043 186.515 92.8043C186.048 92.8043 185.629 92.6923 185.255 92.4684C184.882 92.2445 184.587 91.9428 184.369 91.5634C184.158 91.1778 184.052 90.7518 184.052 90.2853C184.052 89.8126 184.158 89.3865 184.369 89.0071C184.587 88.6277 184.879 88.3261 185.246 88.1022C185.619 87.8783 186.042 87.7663 186.515 87.7663C186.919 87.7663 187.286 87.8596 187.616 88.0462C187.952 88.2328 188.216 88.4847 188.409 88.8019L188.297 88.9978V87.8783H188.997V92.683C188.997 93.1121 188.894 93.4947 188.689 93.8305C188.49 94.1726 188.21 94.4401 187.849 94.6329C187.495 94.8319 187.087 94.9314 186.627 94.9314ZM186.552 92.1046C186.876 92.1046 187.168 92.0237 187.429 91.862C187.69 91.6941 187.899 91.4733 188.054 91.1996C188.216 90.9197 188.297 90.6149 188.297 90.2853C188.297 89.9556 188.216 89.654 188.054 89.3803C187.899 89.1004 187.69 88.8796 187.429 88.7179C187.168 88.55 186.876 88.466 186.552 88.466C186.223 88.466 185.924 88.55 185.657 88.7179C185.389 88.8796 185.178 89.0973 185.022 89.371C184.873 89.6447 184.798 89.9494 184.798 90.2853C184.798 90.6149 184.873 90.9197 185.022 91.1996C185.178 91.4733 185.386 91.6941 185.647 91.862C185.915 92.0237 186.216 92.1046 186.552 92.1046Z" fill="white"/>
<path d="M0.932946 77.0273V41.4054H14.5965C16.5303 41.4054 18.2774 41.8889 19.838 42.8558C21.3986 43.8226 22.6369 45.1203 23.5529 46.7487C24.4689 48.3602 24.9269 50.1498 24.9269 52.1174C24.9269 53.7289 24.63 55.2132 24.0363 56.5702C23.4596 57.9102 22.6454 59.0722 21.5937 60.056C20.5589 61.0399 19.363 61.7863 18.006 62.2951L26.5298 77.0273H19.38L11.1361 62.8549H7.14134V77.0273H0.932946ZM7.14134 56.6465H13.8841C14.7661 56.6465 15.5719 56.426 16.3013 55.985C17.0307 55.5439 17.6159 54.9502 18.0569 54.2039C18.4979 53.4575 18.7185 52.6263 18.7185 51.7103C18.7185 50.7774 18.4979 49.9377 18.0569 49.1914C17.6159 48.445 17.0307 47.8513 16.3013 47.4103C15.5719 46.9692 14.7661 46.7487 13.8841 46.7487H7.14134V56.6465ZM40.8525 77.6889C38.5117 77.6889 36.3744 77.0867 34.4406 75.8824C32.5238 74.678 30.9887 73.058 29.8352 71.0225C28.6987 68.987 28.1304 66.7394 28.1304 64.2798C28.1304 62.4308 28.4612 60.7006 29.1228 59.0892C29.7843 57.4607 30.6918 56.0359 31.8453 54.8145C33.0157 53.5763 34.3728 52.6094 35.9164 51.9139C37.46 51.2184 39.1054 50.8707 40.8525 50.8707C42.8372 50.8707 44.6522 51.2948 46.2976 52.1429C47.96 52.9741 49.3679 54.1191 50.5214 55.5779C51.6748 57.0367 52.5145 58.699 53.0403 60.5649C53.5662 62.4308 53.6849 64.3816 53.3966 66.4171H34.7968C35.0343 67.367 35.4244 68.2236 35.9673 68.987C36.5101 69.7333 37.1971 70.3355 38.0282 70.7935C38.8594 71.2345 39.8009 71.4635 40.8525 71.4805C41.9382 71.4975 42.922 71.243 43.8041 70.7172C44.7031 70.1744 45.4495 69.445 46.0432 68.529L52.3788 70.0047C51.344 72.2608 49.8004 74.1097 47.7479 75.5516C45.6954 76.9765 43.397 77.6889 40.8525 77.6889ZM34.5933 61.7608H47.1118C46.9252 60.743 46.5266 59.827 45.9159 59.0128C45.3222 58.1817 44.5844 57.5201 43.7023 57.0282C42.8202 56.5363 41.8703 56.2903 40.8525 56.2903C39.8348 56.2903 38.8933 56.5363 38.0282 57.0282C37.1631 57.5031 36.4253 58.1562 35.8146 58.9874C35.2209 59.8016 34.8138 60.7261 34.5933 61.7608ZM76.8207 51.5831H83.0291V77.0273H76.8207L76.5409 73.8723C75.8454 75.0088 74.9209 75.9332 73.7674 76.6457C72.6309 77.3412 71.2824 77.6889 69.7218 77.6889C67.8389 77.6889 66.0748 77.3327 64.4294 76.6202C62.784 75.9078 61.3337 74.924 60.0784 73.6687C58.8402 72.4135 57.8648 70.9631 57.1524 69.3177C56.4569 67.6724 56.1091 65.9082 56.1091 64.0253C56.1091 62.2103 56.4399 60.5056 57.1015 58.9111C57.78 57.3166 58.7214 55.9171 59.9258 54.7128C61.1301 53.5084 62.5211 52.567 64.0986 51.8885C65.6762 51.2099 67.3725 50.8707 69.1875 50.8707C70.8668 50.8707 72.368 51.2439 73.6911 51.9902C75.0312 52.7366 76.1677 53.6865 77.1006 54.84L76.8207 51.5831ZM69.5691 71.7095C70.8922 71.7095 72.0627 71.3787 73.0804 70.7172C74.0982 70.0556 74.8955 69.1651 75.4722 68.0455C76.0489 66.909 76.3373 65.6623 76.3373 64.3052C76.3373 62.9312 76.0489 61.6845 75.4722 60.5649C74.8955 59.4284 74.0897 58.5294 73.055 57.8678C72.0372 57.2063 70.8753 56.8755 69.5691 56.8755C68.263 56.8755 67.0671 57.2148 65.9815 57.8933C64.9128 58.5548 64.0562 59.4454 63.4116 60.5649C62.784 61.6845 62.4702 62.9312 62.4702 64.3052C62.4702 65.6792 62.7925 66.926 63.4371 68.0455C64.0817 69.1651 64.9383 70.0556 66.0069 70.7172C67.0926 71.3787 68.28 71.7095 69.5691 71.7095ZM88.2484 77.0273V38.861H94.4568V77.0273H88.2484Z" fill="#2495FF"/>
<path d="M111.371 77.6889C109.03 77.6889 106.893 77.0867 104.959 75.8824C103.042 74.678 101.507 73.058 100.353 71.0225C99.217 68.987 98.6487 66.7394 98.6487 64.2798C98.6487 62.4308 98.9795 60.7006 99.641 59.0892C100.303 57.4607 101.21 56.0359 102.364 54.8145C103.534 53.5763 104.891 52.6094 106.435 51.9139C107.978 51.2184 109.624 50.8707 111.371 50.8707C113.355 50.8707 115.17 51.2948 116.816 52.1429C118.478 52.9741 119.886 54.1191 121.04 55.5779C122.193 57.0367 123.033 58.699 123.559 60.5649C124.084 62.4308 124.203 64.3816 123.915 66.4171H105.315C105.553 67.367 105.943 68.2236 106.486 68.987C107.028 69.7333 107.715 70.3355 108.547 70.7935C109.378 71.2345 110.319 71.4635 111.371 71.4805C112.456 71.4975 113.44 71.243 114.322 70.7172C115.221 70.1744 115.968 69.445 116.561 68.529L122.897 70.0047C121.862 72.2608 120.319 74.1097 118.266 75.5516C116.214 76.9765 113.915 77.6889 111.371 77.6889ZM105.112 61.7608H117.63C117.444 60.743 117.045 59.827 116.434 59.0128C115.841 58.1817 115.103 57.5201 114.221 57.0282C113.338 56.5363 112.389 56.2903 111.371 56.2903C110.353 56.2903 109.412 56.5363 108.547 57.0282C107.681 57.5031 106.944 58.1562 106.333 58.9874C105.739 59.8016 105.332 60.7261 105.112 61.7608ZM135.76 77.4853C134.436 77.4005 133.156 77.1376 131.917 76.6966C130.696 76.2386 129.61 75.6194 128.661 74.8391C127.711 74.0589 126.981 73.1259 126.472 72.0403L131.714 69.8012C131.917 70.1404 132.248 70.5051 132.706 70.8953C133.164 71.2685 133.707 71.5823 134.335 71.8367C134.979 72.0912 135.683 72.2184 136.446 72.2184C137.091 72.2184 137.702 72.1336 138.278 71.9639C138.872 71.7774 139.347 71.4975 139.703 71.1243C140.077 70.7511 140.263 70.2677 140.263 69.674C140.263 69.0463 140.043 68.5629 139.602 68.2236C139.178 67.8674 138.635 67.6045 137.973 67.4349C137.329 67.2483 136.701 67.0787 136.09 66.926C134.479 66.6037 132.978 66.1033 131.587 65.4248C130.213 64.7463 129.102 63.8727 128.253 62.804C127.422 61.7184 127.007 60.4123 127.007 58.8856C127.007 57.2063 127.448 55.756 128.33 54.5346C129.229 53.3133 130.391 52.3719 131.816 51.7103C133.257 51.0488 134.81 50.718 136.472 50.718C138.491 50.718 140.339 51.1421 142.019 51.9902C143.715 52.8214 145.055 54.0003 146.039 55.527L141.128 58.4276C140.891 58.0205 140.56 57.6473 140.136 57.3081C139.712 56.9519 139.228 56.6635 138.686 56.443C138.143 56.2055 137.575 56.0698 136.981 56.0359C136.217 56.0019 135.522 56.0698 134.894 56.2394C134.267 56.409 133.758 56.6974 133.368 57.1045C132.995 57.5116 132.808 58.0544 132.808 58.7329C132.808 59.3775 133.062 59.861 133.571 60.1833C134.08 60.4886 134.691 60.7261 135.403 60.8957C136.133 61.0653 136.828 61.2519 137.49 61.4555C138.982 61.9474 140.382 62.5496 141.688 63.262C143.011 63.9745 144.071 64.848 144.869 65.8828C145.666 66.9175 146.047 68.1558 146.014 69.5976C146.014 71.243 145.522 72.6849 144.538 73.9231C143.554 75.1445 142.282 76.0774 140.721 76.722C139.178 77.3666 137.524 77.621 135.76 77.4853ZM164.006 57.7915H159.07V77.0273H152.862V57.7915H149.096V51.5831H152.862V43.5936H159.07V51.5831H164.006V57.7915ZM187.195 51.5831H193.403V77.0273H187.195L186.915 73.8723C186.22 75.0088 185.295 75.9332 184.142 76.6457C183.005 77.3412 181.657 77.6889 180.096 77.6889C178.213 77.6889 176.449 77.3327 174.804 76.6202C173.158 75.9078 171.708 74.924 170.453 73.6687C169.214 72.4135 168.239 70.9631 167.527 69.3177C166.831 67.6724 166.483 65.9082 166.483 64.0253C166.483 62.2103 166.814 60.5056 167.476 58.9111C168.154 57.3166 169.096 55.9171 170.3 54.7128C171.504 53.5084 172.895 52.567 174.473 51.8885C176.05 51.2099 177.747 50.8707 179.562 50.8707C181.241 50.8707 182.742 51.2439 184.065 51.9902C185.405 52.7366 186.542 53.6865 187.475 54.84L187.195 51.5831ZM179.943 71.7095C181.266 71.7095 182.437 71.3787 183.455 70.7172C184.472 70.0556 185.27 69.1651 185.846 68.0455C186.423 66.909 186.712 65.6623 186.712 64.3052C186.712 62.9312 186.423 61.6845 185.846 60.5649C185.27 59.4284 184.464 58.5294 183.429 57.8678C182.411 57.2063 181.25 56.8755 179.943 56.8755C178.637 56.8755 177.441 57.2148 176.356 57.8933C175.287 58.5548 174.43 59.4454 173.786 60.5649C173.158 61.6845 172.844 62.9312 172.844 64.3052C172.844 65.6792 173.167 66.926 173.811 68.0455C174.456 69.1651 175.313 70.0556 176.381 70.7172C177.467 71.3787 178.654 71.7095 179.943 71.7095Z" fill="white"/>
<path d="M57.249 22.6602H61.1363V26.5475H57.249V22.6602Z" fill="#2495FF"/>
<path d="M57.249 28.1024H61.1363V31.9897H57.249V28.1024Z" fill="#2495FF"/>
<path d="M62.6913 22.6602H66.5786V26.5475H62.6913V22.6602Z" fill="#2495FF"/>
<path d="M62.6913 28.1024H66.5786V31.9897H62.6913V28.1024Z" fill="#2495FF"/>
<path d="M69.3355 11.1776L36.046 29.3853L66.579 8.84521L69.3355 11.1776Z" fill="#2495FF"/>
</svg>
