<svg width="154" height="76" viewBox="0 0 154 76" fill="none" xmlns="http://www.w3.org/2000/svg">
<path d="M48.8122 6.73403L10.8385 26.0988L5.98765 28.3333L0.666016 31.3333L0.832682 24.4321L16.1602 16.8699L48.8122 0L72.666 21.3333V23.3333L67.666 25.6667V23.3333L48.8122 6.73403Z" fill="#2495FF"/>
<path d="M0.3608 69.3181C0.3608 68.3341 1.148 67.6863 2.3288 67.6863C3.3866 67.6863 4.0836 68.2767 4.1738 69.2607H3.5752C3.5096 68.5965 3.0586 68.2193 2.3206 68.2193C1.4924 68.2193 0.9512 68.6457 0.9512 69.3099C0.9512 69.8265 1.2546 70.1545 1.8696 70.3103L2.8782 70.5563C3.7966 70.7777 4.2722 71.3025 4.2722 72.0979C4.2722 73.1147 3.485 73.7625 2.2714 73.7625C1.1316 73.7625 0.3608 73.1639 0.287 72.2045H0.8938C0.9266 72.8195 1.4678 73.2213 2.2714 73.2213C3.1324 73.2213 3.6818 72.8031 3.6818 72.1307C3.6818 71.6059 3.3866 71.2615 2.7552 71.1139L1.763 70.8679C0.8446 70.6465 0.3608 70.1217 0.3608 69.3181ZM5.77671 73.6559H5.21091V67.6863H5.77671V70.3841C6.03091 69.9085 6.51471 69.5887 7.17891 69.5887C8.22031 69.5887 8.68771 70.2365 8.68771 71.2369V73.6641H8.12191V71.3599C8.12191 70.4333 7.68731 70.1053 7.07231 70.1053C6.21951 70.1053 5.77671 70.7367 5.77671 71.4993V73.6559ZM10.9552 73.7625C10.1106 73.7625 9.6104 73.2869 9.6104 72.5899C9.6104 71.8601 10.168 71.4009 11.0946 71.3271L12.4066 71.2205V71.0893C12.4066 70.3103 11.9392 70.0643 11.357 70.0643C10.6682 70.0643 10.2582 70.3759 10.2582 70.9089H9.7416C9.7416 70.1053 10.3976 69.5887 11.3734 69.5887C12.2918 69.5887 12.9642 70.0479 12.9642 71.0975V73.6641H12.4886L12.4148 72.9671C12.1688 73.4673 11.6276 73.7625 10.9552 73.7625ZM11.0864 73.3033C11.9228 73.3033 12.4066 72.7211 12.4066 71.8601V71.6469L11.234 71.7371C10.4878 71.8027 10.1844 72.1307 10.1844 72.5735C10.1844 73.0573 10.5452 73.3033 11.0864 73.3033ZM14.0996 75.3943V69.6953H14.5916L14.649 70.4989C14.9278 69.8839 15.4854 69.5887 16.1496 69.5887C17.2976 69.5887 17.9864 70.4661 17.9864 71.6633C17.9864 72.8605 17.3222 73.7625 16.1496 73.7625C15.4772 73.7625 14.9442 73.4755 14.6654 72.9015V75.3943H14.0996ZM14.6736 71.6797C14.6736 72.5899 15.182 73.2541 16.0512 73.2541C16.9122 73.2541 17.4124 72.5899 17.4124 71.6797C17.4124 70.7613 16.9122 70.1053 16.0512 70.1053C15.182 70.1053 14.6736 70.7613 14.6736 71.6797ZM19.1671 68.6047C18.9375 68.6047 18.7489 68.4161 18.7489 68.1865C18.7489 67.9569 18.9375 67.7601 19.1671 67.7601C19.3967 67.7601 19.5935 67.9569 19.5935 68.1865C19.5935 68.4161 19.3967 68.6047 19.1671 68.6047ZM18.8883 73.6641V69.6953H19.4541V73.6641H18.8883ZM21.1998 73.6641H20.634V69.6953H21.126L21.208 70.3841C21.4704 69.8757 21.9952 69.5887 22.5692 69.5887C23.6598 69.5887 24.1108 70.2365 24.1108 71.2369V73.6641H23.545V71.3599C23.545 70.4333 23.1268 70.1053 22.4708 70.1053C21.659 70.1053 21.1998 70.6957 21.1998 71.5895V73.6641ZM24.9678 71.5649C24.9678 70.4825 25.6648 69.5887 26.8292 69.5887C27.518 69.5887 28.0428 69.9085 28.297 70.4907L28.3544 69.6953H28.8464V73.5411C28.8464 74.7219 28.092 75.4927 26.9276 75.4927C25.9108 75.4927 25.1974 74.9187 25.0416 73.9593H25.6074C25.7304 74.5989 26.2224 74.9761 26.9358 74.9761C27.7476 74.9761 28.2888 74.4267 28.2888 73.5985V72.6555C28.0182 73.2131 27.4688 73.5411 26.7882 73.5411C25.6566 73.5411 24.9678 72.6473 24.9678 71.5649ZM25.5336 71.5567C25.5336 72.3685 26.0338 73.0327 26.8702 73.0327C27.7312 73.0327 28.2396 72.4095 28.2396 71.5567C28.2396 70.7121 27.7476 70.0889 26.8784 70.0889C26.0256 70.0889 25.5336 70.7531 25.5336 71.5567ZM33.2115 73.6641H32.6539V70.1709H31.8585V69.6953H32.6539V68.4407H33.2115V69.6953H34.0069V70.1709H33.2115V73.6641ZM35.3095 73.6559H34.7437V67.6863H35.3095V70.3841C35.5637 69.9085 36.0475 69.5887 36.7117 69.5887C37.7531 69.5887 38.2205 70.2365 38.2205 71.2369V73.6641H37.6547V71.3599C37.6547 70.4333 37.2201 70.1053 36.6051 70.1053C35.7523 70.1053 35.3095 70.7367 35.3095 71.4993V73.6559ZM41.0128 73.7625C39.8484 73.7625 39.0694 72.9261 39.0694 71.6797C39.0694 70.4415 39.8402 69.5887 40.9718 69.5887C42.046 69.5887 42.7758 70.3513 42.7758 71.4747V71.7535H39.6188C39.6598 72.7211 40.1682 73.2787 41.021 73.2787C41.6688 73.2787 42.087 72.9999 42.2346 72.4751H42.7758C42.5626 73.3115 41.9476 73.7625 41.0128 73.7625ZM40.9718 70.0725C40.2256 70.0725 39.7336 70.5645 39.6352 71.3435H42.21C42.21 70.5809 41.718 70.0725 40.9718 70.0725ZM45.5119 69.6953H46.1187V68.9245C46.1187 68.0307 46.6107 67.6863 47.2175 67.6863C47.3569 67.6863 47.5209 67.6945 47.6521 67.7191V68.2029H47.3159C46.8157 68.2029 46.6845 68.4571 46.6845 68.9245V69.6953H47.6193V70.1709H46.6845V73.6641H46.1187V70.1709H45.5119V69.6953ZM51.177 69.6953H51.7428V73.6641H51.2508L51.177 72.9917C50.9556 73.4509 50.4062 73.7625 49.783 73.7625C48.8482 73.7625 48.3398 73.1229 48.3398 72.1553V69.6871H48.9138V71.9749C48.9138 72.9179 49.332 73.2541 49.9634 73.2541C50.726 73.2541 51.177 72.7457 51.177 71.8027V69.6953ZM53.8317 73.6641H53.2741V70.1709H52.4787V69.6953H53.2741V68.4407H53.8317V69.6953H54.6271V70.1709H53.8317V73.6641ZM58.1518 69.6953H58.7176V73.6641H58.2256L58.1518 72.9917C57.9304 73.4509 57.381 73.7625 56.7578 73.7625C55.823 73.7625 55.3146 73.1229 55.3146 72.1553V69.6871H55.8886V71.9749C55.8886 72.9179 56.3068 73.2541 56.9382 73.2541C57.7008 73.2541 58.1518 72.7457 58.1518 71.8027V69.6953ZM61.9709 69.6461V70.1545H61.6593C60.9295 70.1545 60.4621 70.6465 60.4621 71.4009V73.6641H59.8963V69.6953H60.4293L60.4703 70.3103C60.6261 69.8839 61.0443 69.6051 61.6019 69.6051C61.7249 69.6051 61.8315 69.6133 61.9709 69.6461ZM64.2355 73.7625C63.0711 73.7625 62.2921 72.9261 62.2921 71.6797C62.2921 70.4415 63.0629 69.5887 64.1945 69.5887C65.2687 69.5887 65.9985 70.3513 65.9985 71.4747V71.7535H62.8415C62.8825 72.7211 63.3909 73.2787 64.2437 73.2787C64.8915 73.2787 65.3097 72.9999 65.4573 72.4751H65.9985C65.7853 73.3115 65.1703 73.7625 64.2355 73.7625ZM64.1945 70.0725C63.4483 70.0725 62.9563 70.5645 62.8579 71.3435H65.4327C65.4327 70.5809 64.9407 70.0725 64.1945 70.0725ZM68.8985 71.6797C68.8985 70.4661 69.7513 69.5887 70.9157 69.5887C72.0801 69.5887 72.9329 70.4661 72.9329 71.6797C72.9329 72.8851 72.0801 73.7625 70.9157 73.7625C69.7513 73.7625 68.8985 72.8851 68.8985 71.6797ZM69.4725 71.6715C69.4725 72.6063 70.0629 73.2541 70.9157 73.2541C71.7603 73.2541 72.3589 72.6063 72.3589 71.6715C72.3589 70.7531 71.7603 70.0971 70.9157 70.0971C70.0629 70.0971 69.4725 70.7531 69.4725 71.6715ZM73.363 69.6953H73.9698V68.9245C73.9698 68.0307 74.4618 67.6863 75.0686 67.6863C75.208 67.6863 75.372 67.6945 75.5032 67.7191V68.2029H75.167C74.6668 68.2029 74.5356 68.4571 74.5356 68.9245V69.6953H75.4704V70.1709H74.5356V73.6641H73.9698V70.1709H73.363V69.6953ZM79.2278 73.6641H78.6374V67.7929H80.8268C82.0158 67.7929 82.7374 68.4489 82.7374 69.4903C82.7374 70.3349 82.2946 70.9253 81.5402 71.1303L82.7948 73.6641H82.1388L80.9416 71.2287H79.2278V73.6641ZM79.2278 68.3259V70.6957H80.8432C81.655 70.6957 82.1306 70.2529 82.1306 69.5067C82.1306 68.7441 81.6304 68.3259 80.8268 68.3259H79.2278ZM85.1359 73.7625C83.9715 73.7625 83.1925 72.9261 83.1925 71.6797C83.1925 70.4415 83.9633 69.5887 85.0949 69.5887C86.1691 69.5887 86.8989 70.3513 86.8989 71.4747V71.7535H83.7419C83.7829 72.7211 84.2913 73.2787 85.1441 73.2787C85.7919 73.2787 86.2101 72.9999 86.3577 72.4751H86.8989C86.6857 73.3115 86.0707 73.7625 85.1359 73.7625ZM85.0949 70.0725C84.3487 70.0725 83.8567 70.5645 83.7583 71.3435H86.3331C86.3331 70.5809 85.8411 70.0725 85.0949 70.0725ZM88.9032 73.7625C88.0586 73.7625 87.5584 73.2869 87.5584 72.5899C87.5584 71.8601 88.116 71.4009 89.0426 71.3271L90.3546 71.2205V71.0893C90.3546 70.3103 89.8872 70.0643 89.305 70.0643C88.6162 70.0643 88.2062 70.3759 88.2062 70.9089H87.6896C87.6896 70.1053 88.3456 69.5887 89.3214 69.5887C90.2398 69.5887 90.9122 70.0479 90.9122 71.0975V73.6641H90.4366L90.3628 72.9671C90.1168 73.4673 89.5756 73.7625 88.9032 73.7625ZM89.0344 73.3033C89.8708 73.3033 90.3546 72.7211 90.3546 71.8601V71.6469L89.182 71.7371C88.4358 71.8027 88.1324 72.1307 88.1324 72.5735C88.1324 73.0573 88.4932 73.3033 89.0344 73.3033ZM92.638 73.6641H92.0722V67.6863H92.638V73.6641ZM99.7564 73.6641H96.2386V67.7929H99.7482V68.3341H96.829V70.4497H99.4776V70.9827H96.829V73.1229H99.7564V73.6641ZM100.496 72.5489H101.037C101.037 73.0081 101.382 73.2951 101.939 73.2951C102.554 73.2951 102.915 73.0327 102.915 72.6063C102.915 72.2783 102.751 72.0897 102.284 71.9749L101.603 71.8027C100.914 71.6305 100.578 71.2697 100.578 70.7285C100.578 70.0315 101.16 69.5887 102.013 69.5887C102.849 69.5887 103.391 70.0479 103.415 70.7859H102.866C102.849 70.3267 102.53 70.0561 101.997 70.0561C101.439 70.0561 101.127 70.2939 101.127 70.7203C101.127 71.0237 101.341 71.2369 101.775 71.3435L102.456 71.5157C103.145 71.6879 103.456 72.0077 103.456 72.5817C103.456 73.2951 102.849 73.7625 101.947 73.7625C101.054 73.7625 100.496 73.2869 100.496 72.5489ZM105.298 73.6641H104.74V70.1709H103.945V69.6953H104.74V68.4407H105.298V69.6953H106.093V70.1709H105.298V73.6641ZM107.906 73.7625C107.061 73.7625 106.561 73.2869 106.561 72.5899C106.561 71.8601 107.119 71.4009 108.045 71.3271L109.357 71.2205V71.0893C109.357 70.3103 108.89 70.0643 108.308 70.0643C107.619 70.0643 107.209 70.3759 107.209 70.9089H106.692C106.692 70.1053 107.348 69.5887 108.324 69.5887C109.242 69.5887 109.915 70.0479 109.915 71.0975V73.6641H109.439L109.365 72.9671C109.119 73.4673 108.578 73.7625 107.906 73.7625ZM108.037 73.3033C108.873 73.3033 109.357 72.7211 109.357 71.8601V71.6469L108.185 71.7371C107.438 71.8027 107.135 72.1307 107.135 72.5735C107.135 73.0573 107.496 73.3033 108.037 73.3033ZM111.888 73.6641H111.331V70.1709H110.535V69.6953H111.331V68.4407H111.888V69.6953H112.684V70.1709H111.888V73.6641ZM115.045 73.7625C113.881 73.7625 113.102 72.9261 113.102 71.6797C113.102 70.4415 113.872 69.5887 115.004 69.5887C116.078 69.5887 116.808 70.3513 116.808 71.4747V71.7535H113.651C113.692 72.7211 114.2 73.2787 115.053 73.2787C115.701 73.2787 116.119 72.9999 116.267 72.4751H116.808C116.595 73.3115 115.98 73.7625 115.045 73.7625ZM115.004 70.0725C114.258 70.0725 113.766 70.5645 113.667 71.3435H116.242C116.242 70.5809 115.75 70.0725 115.004 70.0725ZM120.7 67.7929V73.6641H120.11V67.7929H120.7ZM122.571 73.6641H122.005V69.6953H122.497L122.579 70.3841C122.841 69.8757 123.366 69.5887 123.94 69.5887C125.031 69.5887 125.482 70.2365 125.482 71.2369V73.6641H124.916V71.3599C124.916 70.4333 124.498 70.1053 123.842 70.1053C123.03 70.1053 122.571 70.6957 122.571 71.5895V73.6641ZM127.636 73.6641L126.013 69.6953H126.619L127.644 72.2537C127.751 72.5407 127.858 72.8113 127.931 73.0737C128.005 72.8031 128.112 72.5407 128.227 72.2537L129.268 69.6953H129.85L128.202 73.6641H127.636ZM132.006 73.7625C130.841 73.7625 130.062 72.9261 130.062 71.6797C130.062 70.4415 130.833 69.5887 131.965 69.5887C133.039 69.5887 133.769 70.3513 133.769 71.4747V71.7535H130.612C130.653 72.7211 131.161 73.2787 132.014 73.2787C132.662 73.2787 133.08 72.9999 133.227 72.4751H133.769C133.555 73.3115 132.94 73.7625 132.006 73.7625ZM131.965 70.0725C131.218 70.0725 130.726 70.5645 130.628 71.3435H133.203C133.203 70.5809 132.711 70.0725 131.965 70.0725ZM134.337 72.5489H134.878C134.878 73.0081 135.223 73.2951 135.78 73.2951C136.395 73.2951 136.756 73.0327 136.756 72.6063C136.756 72.2783 136.592 72.0897 136.125 71.9749L135.444 71.8027C134.755 71.6305 134.419 71.2697 134.419 70.7285C134.419 70.0315 135.001 69.5887 135.854 69.5887C136.69 69.5887 137.232 70.0479 137.256 70.7859H136.707C136.69 70.3267 136.371 70.0561 135.838 70.0561C135.28 70.0561 134.968 70.2939 134.968 70.7203C134.968 71.0237 135.182 71.2369 135.616 71.3435L136.297 71.5157C136.986 71.6879 137.297 72.0077 137.297 72.5817C137.297 73.2951 136.69 73.7625 135.788 73.7625C134.895 73.7625 134.337 73.2869 134.337 72.5489ZM139.139 73.6641H138.581V70.1709H137.786V69.6953H138.581V68.4407H139.139V69.6953H139.934V70.1709H139.139V73.6641ZM140.95 68.6047C140.72 68.6047 140.532 68.4161 140.532 68.1865C140.532 67.9569 140.72 67.7601 140.95 67.7601C141.179 67.7601 141.376 67.9569 141.376 68.1865C141.376 68.4161 141.179 68.6047 140.95 68.6047ZM140.671 73.6641V69.6953H141.237V73.6641H140.671ZM142.983 73.6641H142.417V69.6953H142.909L142.991 70.3841C143.253 69.8757 143.778 69.5887 144.352 69.5887C145.443 69.5887 145.894 70.2365 145.894 71.2369V73.6641H145.328V71.3599C145.328 70.4333 144.91 70.1053 144.254 70.1053C143.442 70.1053 142.983 70.6957 142.983 71.5895V73.6641ZM146.751 71.5649C146.751 70.4825 147.448 69.5887 148.612 69.5887C149.301 69.5887 149.826 69.9085 150.08 70.4907L150.137 69.6953H150.629V73.5411C150.629 74.7219 149.875 75.4927 148.71 75.4927C147.694 75.4927 146.98 74.9187 146.824 73.9593H147.39C147.513 74.5989 148.005 74.9761 148.719 74.9761C149.53 74.9761 150.072 74.4267 150.072 73.5985V72.6555C149.801 73.2131 149.252 73.5411 148.571 73.5411C147.439 73.5411 146.751 72.6473 146.751 71.5649ZM147.316 71.5567C147.316 72.3685 147.817 73.0327 148.653 73.0327C149.514 73.0327 150.022 72.4095 150.022 71.5567C150.022 70.7121 149.53 70.0889 148.661 70.0889C147.808 70.0889 147.316 70.7531 147.316 71.5567Z" fill="black"/>
<path d="M0.732032 60.3281V32.3281H11.472C12.992 32.3281 14.3654 32.7081 15.592 33.4681C16.8187 34.2281 17.792 35.2481 18.512 36.5281C19.232 37.7948 19.592 39.2015 19.592 40.7481C19.592 42.0148 19.3587 43.1815 18.892 44.2481C18.4387 45.3015 17.7987 46.2148 16.972 46.9881C16.1587 47.7615 15.2187 48.3481 14.152 48.7481L20.852 60.3281H15.232L8.75203 49.1881H5.61203V60.3281H0.732032ZM5.61203 44.3081H10.912C11.6054 44.3081 12.2387 44.1348 12.812 43.7881C13.3854 43.4415 13.8454 42.9748 14.192 42.3881C14.5387 41.8015 14.712 41.1481 14.712 40.4281C14.712 39.6948 14.5387 39.0348 14.192 38.4481C13.8454 37.8615 13.3854 37.3948 12.812 37.0481C12.2387 36.7015 11.6054 36.5281 10.912 36.5281H5.61203V44.3081ZM32.1102 60.8481C30.2702 60.8481 28.5902 60.3748 27.0702 59.4281C25.5635 58.4815 24.3568 57.2081 23.4502 55.6081C22.5568 54.0081 22.1102 52.2415 22.1102 50.3081C22.1102 48.8548 22.3702 47.4948 22.8902 46.2281C23.4102 44.9481 24.1235 43.8281 25.0302 42.8681C25.9502 41.8948 27.0168 41.1348 28.2302 40.5881C29.4435 40.0415 30.7368 39.7681 32.1102 39.7681C33.6702 39.7681 35.0968 40.1015 36.3902 40.7681C37.6968 41.4215 38.8035 42.3215 39.7102 43.4681C40.6168 44.6148 41.2768 45.9215 41.6902 47.3881C42.1035 48.8548 42.1968 50.3881 41.9702 51.9881H27.3502C27.5368 52.7348 27.8435 53.4081 28.2702 54.0081C28.6968 54.5948 29.2368 55.0681 29.8902 55.4281C30.5435 55.7748 31.2835 55.9548 32.1102 55.9681C32.9635 55.9815 33.7368 55.7815 34.4302 55.3681C35.1368 54.9415 35.7235 54.3681 36.1902 53.6481L41.1702 54.8081C40.3568 56.5815 39.1435 58.0348 37.5302 59.1681C35.9168 60.2881 34.1102 60.8481 32.1102 60.8481ZM27.1902 48.3281H37.0302C36.8835 47.5281 36.5702 46.8081 36.0902 46.1681C35.6235 45.5148 35.0435 44.9948 34.3502 44.6081C33.6568 44.2215 32.9102 44.0281 32.1102 44.0281C31.3102 44.0281 30.5702 44.2215 29.8902 44.6081C29.2102 44.9815 28.6302 45.4948 28.1502 46.1481C27.6835 46.7881 27.3635 47.5148 27.1902 48.3281ZM60.3824 40.3281H65.2624V60.3281H60.3824L60.1624 57.8481C59.6157 58.7415 58.889 59.4681 57.9824 60.0281C57.089 60.5748 56.029 60.8481 54.8024 60.8481C53.3224 60.8481 51.9357 60.5681 50.6424 60.0081C49.349 59.4481 48.209 58.6748 47.2224 57.6881C46.249 56.7015 45.4824 55.5615 44.9224 54.2681C44.3757 52.9748 44.1024 51.5881 44.1024 50.1081C44.1024 48.6815 44.3624 47.3415 44.8824 46.0881C45.4157 44.8348 46.1557 43.7348 47.1024 42.7881C48.049 41.8415 49.1424 41.1015 50.3824 40.5681C51.6224 40.0348 52.9557 39.7681 54.3824 39.7681C55.7024 39.7681 56.8824 40.0615 57.9224 40.6481C58.9757 41.2348 59.869 41.9815 60.6024 42.8881L60.3824 40.3281ZM54.6824 56.1481C55.7224 56.1481 56.6424 55.8881 57.4424 55.3681C58.2424 54.8481 58.869 54.1481 59.3224 53.2681C59.7757 52.3748 60.0024 51.3948 60.0024 50.3281C60.0024 49.2481 59.7757 48.2681 59.3224 47.3881C58.869 46.4948 58.2357 45.7881 57.4224 45.2681C56.6224 44.7481 55.709 44.4881 54.6824 44.4881C53.6557 44.4881 52.7157 44.7548 51.8624 45.2881C51.0224 45.8081 50.349 46.5081 49.8424 47.3881C49.349 48.2681 49.1024 49.2481 49.1024 50.3281C49.1024 51.4081 49.3557 52.3881 49.8624 53.2681C50.369 54.1481 51.0424 54.8481 51.8824 55.3681C52.7357 55.8881 53.669 56.1481 54.6824 56.1481ZM69.3649 60.3281V30.3281H74.2449V60.3281H69.3649Z" fill="#2495FF"/>
<path d="M87.5399 60.8481C85.6999 60.8481 84.0199 60.3748 82.4999 59.4281C80.9932 58.4815 79.7865 57.2081 78.8799 55.6081C77.9865 54.0081 77.5399 52.2415 77.5399 50.3081C77.5399 48.8548 77.7999 47.4948 78.3199 46.2281C78.8399 44.9481 79.5532 43.8281 80.4599 42.8681C81.3799 41.8948 82.4465 41.1348 83.6599 40.5881C84.8732 40.0415 86.1665 39.7681 87.5399 39.7681C89.0999 39.7681 90.5265 40.1015 91.8199 40.7681C93.1265 41.4215 94.2332 42.3215 95.1399 43.4681C96.0465 44.6148 96.7065 45.9215 97.1199 47.3881C97.5332 48.8548 97.6265 50.3881 97.3999 51.9881H82.7799C82.9665 52.7348 83.2732 53.4081 83.6999 54.0081C84.1265 54.5948 84.6665 55.0681 85.3199 55.4281C85.9732 55.7748 86.7132 55.9548 87.5399 55.9681C88.3932 55.9815 89.1665 55.7815 89.8599 55.3681C90.5665 54.9415 91.1532 54.3681 91.6199 53.6481L96.5999 54.8081C95.7865 56.5815 94.5732 58.0348 92.9599 59.1681C91.3465 60.2881 89.5399 60.8481 87.5399 60.8481ZM82.6199 48.3281H92.4599C92.3132 47.5281 91.9999 46.8081 91.5199 46.1681C91.0532 45.5148 90.4732 44.9948 89.7799 44.6081C89.0865 44.2215 88.3399 44.0281 87.5399 44.0281C86.7399 44.0281 85.9999 44.2215 85.3199 44.6081C84.6399 44.9815 84.0599 45.4948 83.5799 46.1481C83.1132 46.7881 82.7932 47.5148 82.6199 48.3281ZM106.71 60.6881C105.67 60.6215 104.664 60.4148 103.69 60.0681C102.73 59.7081 101.877 59.2215 101.13 58.6081C100.384 57.9948 99.8102 57.2615 99.4102 56.4081L103.53 54.6481C103.69 54.9148 103.95 55.2015 104.31 55.5081C104.67 55.8015 105.097 56.0481 105.59 56.2481C106.097 56.4481 106.65 56.5481 107.25 56.5481C107.757 56.5481 108.237 56.4815 108.69 56.3481C109.157 56.2015 109.53 55.9815 109.81 55.6881C110.104 55.3948 110.25 55.0148 110.25 54.5481C110.25 54.0548 110.077 53.6748 109.73 53.4081C109.397 53.1281 108.97 52.9215 108.45 52.7881C107.944 52.6415 107.45 52.5081 106.97 52.3881C105.704 52.1348 104.524 51.7415 103.43 51.2081C102.35 50.6748 101.477 49.9881 100.81 49.1481C100.157 48.2948 99.8302 47.2681 99.8302 46.0681C99.8302 44.7481 100.177 43.6081 100.87 42.6481C101.577 41.6881 102.49 40.9481 103.61 40.4281C104.744 39.9081 105.964 39.6481 107.27 39.6481C108.857 39.6481 110.31 39.9815 111.63 40.6481C112.964 41.3015 114.017 42.2281 114.79 43.4281L110.93 45.7081C110.744 45.3881 110.484 45.0948 110.15 44.8281C109.817 44.5481 109.437 44.3215 109.01 44.1481C108.584 43.9615 108.137 43.8548 107.67 43.8281C107.07 43.8015 106.524 43.8548 106.03 43.9881C105.537 44.1215 105.137 44.3481 104.83 44.6681C104.537 44.9881 104.39 45.4148 104.39 45.9481C104.39 46.4548 104.59 46.8348 104.99 47.0881C105.39 47.3281 105.87 47.5148 106.43 47.6481C107.004 47.7815 107.55 47.9281 108.07 48.0881C109.244 48.4748 110.344 48.9481 111.37 49.5081C112.41 50.0681 113.244 50.7548 113.87 51.5681C114.497 52.3815 114.797 53.3548 114.77 54.4881C114.77 55.7815 114.384 56.9148 113.61 57.8881C112.837 58.8481 111.837 59.5815 110.61 60.0881C109.397 60.5948 108.097 60.7948 106.71 60.6881ZM128.913 45.2081H125.033V60.3281H120.153V45.2081H117.193V40.3281H120.153V34.0481H125.033V40.3281H128.913V45.2081ZM147.14 40.3281H152.02V60.3281H147.14L146.92 57.8481C146.374 58.7415 145.647 59.4681 144.74 60.0281C143.847 60.5748 142.787 60.8481 141.56 60.8481C140.08 60.8481 138.694 60.5681 137.4 60.0081C136.107 59.4481 134.967 58.6748 133.98 57.6881C133.007 56.7015 132.24 55.5615 131.68 54.2681C131.134 52.9748 130.86 51.5881 130.86 50.1081C130.86 48.6815 131.12 47.3415 131.64 46.0881C132.174 44.8348 132.914 43.7348 133.86 42.7881C134.807 41.8415 135.9 41.1015 137.14 40.5681C138.38 40.0348 139.714 39.7681 141.14 39.7681C142.46 39.7681 143.64 40.0615 144.68 40.6481C145.734 41.2348 146.627 41.9815 147.36 42.8881L147.14 40.3281ZM141.44 56.1481C142.48 56.1481 143.4 55.8881 144.2 55.3681C145 54.8481 145.627 54.1481 146.08 53.2681C146.534 52.3748 146.76 51.3948 146.76 50.3281C146.76 49.2481 146.534 48.2681 146.08 47.3881C145.627 46.4948 144.994 45.7881 144.18 45.2681C143.38 44.7481 142.467 44.4881 141.44 44.4881C140.414 44.4881 139.474 44.7548 138.62 45.2881C137.78 45.8081 137.107 46.5081 136.6 47.3881C136.107 48.2681 135.86 49.2481 135.86 50.3281C135.86 51.4081 136.114 52.3881 136.62 53.2681C137.127 54.1481 137.8 54.8481 138.64 55.3681C139.494 55.8881 140.427 56.1481 141.44 56.1481Z" fill="black"/>
<path d="M45 17.3281H48.0556V20.3837H45V17.3281Z" fill="#2495FF"/>
<path d="M45 21.6059H48.0556V24.6615H45V21.6059Z" fill="#2495FF"/>
<path d="M49.2778 17.3281H52.3333V20.3837H49.2778V17.3281Z" fill="#2495FF"/>
<path d="M49.2778 21.6059H52.3333V24.6615H49.2778V21.6059Z" fill="#2495FF"/>
<path d="M54.4994 8.29867L28.3327 22.6105L52.3327 6.46534L54.4994 8.29867Z" fill="#2495FF"/>
</svg>
